HIERARCHY
ROOT Root
{
  OFFSET 0.0 0.0 0.0
  CHANNELS 6 Xposition Yposition Zposition Zrotation Yrotation Xrotation
  JOINT Hips
  {
    OFFSET 0.0 100.0 0.0
    CHANNELS 6 Xposition Yposition Zposition Zrotation Yrotation Xrotation
    JOINT Spine1
    {
      OFFSET 5.003913 -0.037094 -0.013727
      CHANNELS 3 Zrotation Yrotation Xrotation
      JOINT Spine2
      {
        OFFSET 7.125363 -1e-06 0.0
        CHANNELS 3 Zrotation Yrotation Xrotation
        JOINT Chest
        {
          OFFSET 7.594027 1e-06 0.0
          CHANNELS 3 Zrotation Yrotation Xrotation
          JOINT Neck1
          {
            OFFSET 26.313086 -0.460272 -0.181672
            CHANNELS 3 Zrotation Yrotation Xrotation
            JOINT Neck2
            {
              OFFSET 8.045911 0.0 0.0
              CHANNELS 3 Zrotation Yrotation Xrotation
              JOINT Head
              {
                OFFSET 6.432774 0.0 0.0
                CHANNELS 3 Zrotation Yrotation Xrotation
                JOINT HeadEnd
                {
                  OFFSET 16.169773 0.06451 0.00362
                  CHANNELS 3 Zrotation Yrotation Xrotation
                }
                JOINT Jaw
                {
                  OFFSET 0.108741 3.12938 0.002639
                  CHANNELS 3 Zrotation Yrotation Xrotation
                }
                JOINT LeftEye
                {
                  OFFSET 4.45173 8.166359 3.206392
                  CHANNELS 3 Zrotation Yrotation Xrotation
                }
                JOINT RightEye
                {
                  OFFSET 4.436895 8.135758 -3.222429
                  CHANNELS 3 Zrotation Yrotation Xrotation
                }
              }
            }
          }
          JOINT LeftShoulder
          {
            OFFSET 23.218927 5.195579 1.621656
            CHANNELS 3 Zrotation Yrotation Xrotation
            JOINT LeftArm
            {
              OFFSET 15.902118 2e-06 -2e-06
              CHANNELS 3 Zrotation Yrotation Xrotation
              JOINT LeftForeArm
              {
                OFFSET 28.739307 0.0 -1e-06
                CHANNELS 3 Zrotation Yrotation Xrotation
                JOINT LeftHand
                {
                  OFFSET 27.093981 -4e-06 0.0
                  CHANNELS 3 Zrotation Yrotation Xrotation
                  JOINT LeftHandThumb1
                  {
                    OFFSET 2.276781 3.380274 0.83384
                    CHANNELS 3 Zrotation Yrotation Xrotation
                    JOINT LeftHandThumb2
                    {
                      OFFSET 4.705309 -1e-06 -1e-06
                      CHANNELS 3 Zrotation Yrotation Xrotation
                      JOINT LeftHandThumb3
                      {
                        OFFSET 2.798515 0.0 3e-06
                        CHANNELS 3 Zrotation Yrotation Xrotation
                        JOINT LeftHandThumbEnd
                        {
                          OFFSET 3.180793 4e-06 -4e-06
                          CHANNELS 3 Zrotation Yrotation Xrotation
                        }
                      }
                    }
                  }
                  JOINT LeftHandIndex1
                  {
                    OFFSET 3.247786 2.352677 0.137192
                    CHANNELS 3 Zrotation Yrotation Xrotation
                    JOINT LeftHandIndex2
                    {
                      OFFSET 6.367095 1e-06 0.0
                      CHANNELS 3 Zrotation Yrotation Xrotation
                      JOINT LeftHandIndex3
                      {
                        OFFSET 3.662364 0.0 0.0
                        CHANNELS 3 Zrotation Yrotation Xrotation
                        JOINT LeftHandIndex4
                        {
                          OFFSET 2.329242 4e-06 -4e-06
                          CHANNELS 3 Zrotation Yrotation Xrotation
                          JOINT LeftHandIndexEnd
                          {
                            OFFSET 2.767823 1e-06 0.0
                            CHANNELS 3 Zrotation Yrotation Xrotation
                          }
                        }
                      }
                    }
                  }
                  JOINT LeftHandMiddle1
                  {
                    OFFSET 3.163612 0.945023 -0.406112
                    CHANNELS 3 Zrotation Yrotation Xrotation
                    JOINT LeftHandMiddle2
                    {
                      OFFSET 6.276789 3e-06 0.0
                      CHANNELS 3 Zrotation Yrotation Xrotation
                      JOINT LeftHandMiddle3
                      {
                        OFFSET 4.35652 -1e-06 4e-06
                        CHANNELS 3 Zrotation Yrotation Xrotation
                        JOINT LeftHandMiddle4
                        {
                          OFFSET 2.996877 0.0 8e-06
                          CHANNELS 3 Zrotation Yrotation Xrotation
                          JOINT LeftHandMiddleEnd
                          {
                            OFFSET 2.323256 3e-06 -4e-06
                            CHANNELS 3 Zrotation Yrotation Xrotation
                          }
                        }
                      }
                    }
                  }
                  JOINT LeftHandRing1
                  {
                    OFFSET 2.882606 -0.309162 0.107445
                    CHANNELS 3 Zrotation Yrotation Xrotation
                    JOINT LeftHandRing2
                    {
                      OFFSET 6.033198 0.0 4e-06
                      CHANNELS 3 Zrotation Yrotation Xrotation
                      JOINT LeftHandRing3
                      {
                        OFFSET 4.350578 3e-06 0.0
                        CHANNELS 3 Zrotation Yrotation Xrotation
                        JOINT LeftHandRing4
                        {
                          OFFSET 2.651321 2e-06 -7e-06
                          CHANNELS 3 Zrotation Yrotation Xrotation
                          JOINT LeftHandRingEnd
                          {
                            OFFSET 1.937663 1e-06 -4e-06
                            CHANNELS 3 Zrotation Yrotation Xrotation
                          }
                        }
                      }
                    }
                  }
                  JOINT LeftHandPinky1
                  {
                    OFFSET 2.865315 -1.525436 0.575687
                    CHANNELS 3 Zrotation Yrotation Xrotation
                    JOINT LeftHandPinky2
                    {
                      OFFSET 5.54936 1e-06 -8e-06
                      CHANNELS 3 Zrotation Yrotation Xrotation
                      JOINT LeftHandPinky3
                      {
                        OFFSET 3.070974 0.0 -4e-06
                        CHANNELS 3 Zrotation Yrotation Xrotation
                        JOINT LeftHandPinky4
                        {
                          OFFSET 1.549672 1e-06 0.0
                          CHANNELS 3 Zrotation Yrotation Xrotation
                          JOINT LeftHandPinkyEnd
                          {
                            OFFSET 1.952123 0.0 0.0
                            CHANNELS 3 Zrotation Yrotation Xrotation
                          }
                        }
                      }
                    }
                  }
                }
              }
            }
          }
          JOINT RightShoulder
          {
            OFFSET 23.161716 5.296122 -1.380114
            CHANNELS 3 Zrotation Yrotation Xrotation
            JOINT RightArm
            {
              OFFSET -16.027195 -2e-06 1.1e-05
              CHANNELS 3 Zrotation Yrotation Xrotation
              JOINT RightForeArm
              {
                OFFSET -28.736639 4e-06 2e-06
                CHANNELS 3 Zrotation Yrotation Xrotation
                JOINT RightHand
                {
                  OFFSET -27.133619 6e-06 0.0
                  CHANNELS 3 Zrotation Yrotation Xrotation
                  JOINT RightHandThumb1
                  {
                    OFFSET -2.274328 -3.351035 -0.83067
                    CHANNELS 3 Zrotation Yrotation Xrotation
                    JOINT RightHandThumb2
                    {
                      OFFSET -4.703594 -3e-06 2e-06
                      CHANNELS 3 Zrotation Yrotation Xrotation
                      JOINT RightHandThumb3
                      {
                        OFFSET -2.794935 -4e-06 -3e-06
                        CHANNELS 3 Zrotation Yrotation Xrotation
                        JOINT RightHandThumbEnd
                        {
                          OFFSET -3.183852 4e-06 1e-06
                          CHANNELS 3 Zrotation Yrotation Xrotation
                        }
                      }
                    }
                  }
                  JOINT RightHandIndex1
                  {
                    OFFSET -3.253496 -2.33755 -0.127667
                    CHANNELS 3 Zrotation Yrotation Xrotation
                    JOINT RightHandIndex2
                    {
                      OFFSET -6.344434 0.0 0.0
                      CHANNELS 3 Zrotation Yrotation Xrotation
                      JOINT RightHandIndex3
                      {
                        OFFSET -3.654871 0.0 -8e-06
                        CHANNELS 3 Zrotation Yrotation Xrotation
                        JOINT RightHandIndex4
                        {
                          OFFSET -2.327586 -1e-06 0.0
                          CHANNELS 3 Zrotation Yrotation Xrotation
                          JOINT RightHandIndexEnd
                          {
                            OFFSET -2.770001 3e-06 8e-06
                            CHANNELS 3 Zrotation Yrotation Xrotation
                          }
                        }
                      }
                    }
                  }
                  JOINT RightHandMiddle1
                  {
                    OFFSET -3.168223 -0.944764 0.411762
                    CHANNELS 3 Zrotation Yrotation Xrotation
                    JOINT RightHandMiddle2
                    {
                      OFFSET -6.266691 -1e-06 -4e-06
                      CHANNELS 3 Zrotation Yrotation Xrotation
                      JOINT RightHandMiddle3
                      {
                        OFFSET -4.348901 0.0 0.0
                        CHANNELS 3 Zrotation Yrotation Xrotation
                        JOINT RightHandMiddle4
                        {
                          OFFSET -3.00024 2e-06 -4e-06
                          CHANNELS 3 Zrotation Yrotation Xrotation
                          JOINT RightHandMiddleEnd
                          {
                            OFFSET -2.321477 -4e-06 -4e-06
                            CHANNELS 3 Zrotation Yrotation Xrotation
                          }
                        }
                      }
                    }
                  }
                  JOINT RightHandRing1
                  {
                    OFFSET -2.885654 0.293261 -0.119232
                    CHANNELS 3 Zrotation Yrotation Xrotation
                    JOINT RightHandRing2
                    {
                      OFFSET -6.032835 -1e-06 -4e-06
                      CHANNELS 3 Zrotation Yrotation Xrotation
                      JOINT RightHandRing3
                      {
                        OFFSET -4.33881 0.0 -4e-06
                        CHANNELS 3 Zrotation Yrotation Xrotation
                        JOINT RightHandRing4
                        {
                          OFFSET -2.654903 -4e-06 -4e-06
                          CHANNELS 3 Zrotation Yrotation Xrotation
                          JOINT RightHandRingEnd
                          {
                            OFFSET -1.935122 0.0 4e-06
                            CHANNELS 3 Zrotation Yrotation Xrotation
                          }
                        }
                      }
                    }
                  }
                  JOINT RightHandPinky1
                  {
                    OFFSET -2.866241 1.503904 -0.60527
                    CHANNELS 3 Zrotation Yrotation Xrotation
                    JOINT RightHandPinky2
                    {
                      OFFSET -5.553177 -2e-06 0.0
                      CHANNELS 3 Zrotation Yrotation Xrotation
                      JOINT RightHandPinky3
                      {
                        OFFSET -3.062664 -1e-06 -4e-06
                        CHANNELS 3 Zrotation Yrotation Xrotation
                        JOINT RightHandPinky4
                        {
                          OFFSET -1.546529 2e-06 4e-06
                          CHANNELS 3 Zrotation Yrotation Xrotation
                          JOINT RightHandPinkyEnd
                          {
                            OFFSET -1.952341 0.0 -4e-06
                            CHANNELS 3 Zrotation Yrotation Xrotation
                          }
                        }
                      }
                    }
                  }
                }
              }
            }
          }
        }
      }
    }
    JOINT LeftLeg
    {
      OFFSET -8.443107 2.567604 10.043214
      CHANNELS 3 Zrotation Yrotation Xrotation
      JOINT LeftShin
      {
        OFFSET 43.229198 1e-06 -1e-06
        CHANNELS 3 Zrotation Yrotation Xrotation
        JOINT LeftFoot
        {
          OFFSET 42.298611 1e-06 1e-06
          CHANNELS 3 Zrotation Yrotation Xrotation
          JOINT LeftToeBase
          {
            OFFSET 14.165858 1e-06 0.0
            CHANNELS 3 Zrotation Yrotation Xrotation
            JOINT LeftToeEnd
            {
              OFFSET 6.7141 -0.234461 0.0
              CHANNELS 3 Zrotation Yrotation Xrotation
            }
          }
        }
      }
    }
    JOINT RightLeg
    {
      OFFSET -8.303923 2.592729 -10.047278
      CHANNELS 3 Zrotation Yrotation Xrotation
      JOINT RightShin
      {
        OFFSET -43.369682 0.0 1e-06
        CHANNELS 3 Zrotation Yrotation Xrotation
        JOINT RightFoot
        {
          OFFSET -42.260784 4e-06 2e-06
          CHANNELS 3 Zrotation Yrotation Xrotation
          JOINT RightToeBase
          {
            OFFSET -14.222245 -2e-06 -1e-06
            CHANNELS 3 Zrotation Yrotation Xrotation
            JOINT RightToeEnd
            {
              OFFSET -6.660062 0.232574 -2e-06
              CHANNELS 3 Zrotation Yrotation Xrotation
            }
          }
        }
      }
    }
  }
}
MOTION
Frames: 4
Frame Time: 0.03333333333333333
0.0 0.0 0.0 0.0 -0.0 0.0 -1.925207 100.004448 4.693383 91.08432 -1.429924 90.329796 -3.774735 0.20424 0.035556 -12.546886 -0.29221 0.029313 18.891243 -0.629718 -2.139055 11.432534 -1.743986 2.651259 -2.695896 -0.710836 -0.047304 -34.847477 -1.456816 0.109114 7e-06 0.0 0.0 -0.034808 -0.020767 -0.118865 -0.04156 -0.042179 -0.115729 -0.019484 -0.007801 -0.113573 -103.682625 -65.717247 120.937965 22.695353 -14.149893 16.272352 52.963371 -0.138096 -0.186701 6.521157 3.439038 -8.746843 17.636627 -26.322729 52.41119 -19.466658 -14.3956 29.410385 -1e-06 -8.774822 -3e-06 15.609365 -18.05061 6.196787 -0.609774 -1.795654 -3.889325 -4.807086 -11.046811 -2.93785 5e-06 -20.976019 0.0 -5.01997 -25.033556 -4.03188 6e-06 1e-06 -1e-06 -10.634533 -5.686968 -3.565587 10.573276 -17.922951 -3.113902 3e-06 -13.82121 1e-06 -0.501774 -31.181505 -4.027019 -10.959836 -59.23851 7.010878 -13.982711 -7.150198 -2.875041 13.772727 -8.401491 -3.218243 0.347733 -34.211555 0.771655 -0.963028 -17.733368 2.621018 -0.0 -0.0 -1e-06 -17.346418 -20.095219 -4.201779 21.757563 -1.638371 3.866428 0.0 -6.338824 1e-06 -1.697587 -22.591742 -6.194006 -1e-06 -4e-06 -2e-06 75.364204 -71.394394 121.532768 21.131325 -18.95903 3.346312 49.995655 -0.946996 0.779151 1.905013 0.03819 1.507975 22.182116 -20.375891 49.933308 -16.701817 -16.743526 28.47653 -2e-06 -12.690601 0.0 16.38402 -17.987679 2.777759 -0.105918 -1.513856 -4.27588 -5.039042 -5.612869 -2.953556 3e-06 -11.020526 -2e-06 -6.111296 -15.895334 -3.840469 0.0 1e-06 -1e-06 -10.283371 -5.680288 -4.341837 11.028296 -11.302408 -2.372634 -1.384269 -14.238579 -6.320122 -0.62544 -26.924191 -3.8276 -4.10476 -50.271904 -3.466485 -13.708525 -7.363477 -3.720939 18.141151 -14.052743 -3.242677 9e-06 -18.787271 -5e-06 -0.429711 -8.456043 2.555501 0.0 0.0 1e-06 -15.923536 -20.094486 -5.473583 30.41921 -7.190825 1.735927 5e-06 -8.162924 -3e-06 -1.861904 -22.861471 -6.167944 1e-06 -3e-06 -1e-06 -179.514893 -4.118306 -4.110754 6.467384 -0.074011 0.19974 -76.868988 -5.147325 -9.515548 -5.461313 1.343751 2.027908 -0.999999 -0.0 -0.0 1.648641 -9.043113 -5.171074 5.331812 -0.043045 0.062686 -76.892845 2.684886 -10.561094 -5.059295 0.796445 1.679642 -1.0 -0.0 0.0 
0.0 0.0 0.0 0.0 -0.0 0.0 -1.707712 100.001266 4.747196 91.161186 -1.471238 90.237907 -3.739905 0.17478 0.020573 -12.515395 -0.273422 0.027577 18.821367 -0.632041 -2.149166 11.401856 -1.62172 2.659784 -2.694103 -0.738276 0.017681 -34.812103 -1.566275 0.176126 7e-06 -0.0 0.0 -0.042135 -0.020395 -0.110453 -0.041559 -0.047744 -0.110287 -0.019536 -0.001816 -0.103482 -103.44281 -65.685135 120.748146 22.621193 -14.227509 16.094185 52.864323 -0.254391 -0.200538 6.860396 3.458643 -8.716338 17.636629 -26.322737 52.411201 -19.466665 -14.3956 29.410389 -1e-06 -8.774824 -3e-06 15.592554 -17.983416 6.163276 -0.609775 -1.795654 -3.889328 -4.807091 -11.046813 -2.937851 2e-06 -20.976021 3e-06 -5.019974 -25.033562 -4.031884 6e-06 -1e-06 -1e-06 -10.634537 -5.686973 -3.565588 10.573274 -17.922953 -3.113899 2e-06 -13.821212 -0.0 -0.501779 -31.181507 -4.027019 -10.921029 -59.355759 7.078369 -13.982714 -7.150196 -2.87504 13.772731 -8.401495 -3.218242 0.347732 -34.211559 0.771657 -0.963031 -17.733372 2.621019 0.0 -0.0 -0.0 -17.346422 -20.095222 -4.20178 21.757561 -1.638374 3.86643 2e-06 -6.338825 -0.0 -1.697589 -22.591751 -6.194009 -1e-06 -5e-06 -2e-06 75.489578 -71.44178 121.493439 20.939018 -18.748159 3.685941 49.928856 -0.772332 0.771127 2.071624 -0.193896 1.425601 22.182117 -20.375898 49.933319 -16.701815 -16.743532 28.476532 -2e-06 -12.690601 1e-06 16.450949 -18.00584 2.755402 -0.105919 -1.513856 -4.275882 -5.03904 -5.612869 -2.953556 3e-06 -11.020527 1e-06 -6.111298 -15.895338 -3.840469 -0.0 1e-06 -3e-06 -10.283371 -5.680284 -4.341839 11.028296 -11.30241 -2.372634 -1.384268 -14.238581 -6.32012 -0.625443 -26.924194 -3.827598 -4.126836 -50.388939 -3.438045 -13.708522 -7.363477 -3.720939 18.14115 -14.052739 -3.242675 5e-06 -18.787273 -1e-06 -0.429712 -8.456045 2.555506 0.0 -0.0 0.0 -15.923538 -20.094482 -5.473583 30.419214 -7.190825 1.735924 5e-06 -8.162925 -2e-06 -1.861905 -22.861471 -6.167942 1e-06 -3e-06 -2e-06 -179.534683 -3.914753 -4.109791 6.500715 -0.059174 0.245212 -76.973076 -5.115835 -9.46435 -5.475783 1.375485 2.044211 -0.999999 0.0 -0.0 1.603617 -9.277747 -5.242136 5.271165 -0.040522 0.048583 -76.807312 2.942578 -10.65283 -5.092393 0.772068 1.675192 -1.000002 0.0 0.0 
0.0 0.0 0.0 0.0 -0.0 0.0 -1.425831 99.988846 4.78437 91.256279 -1.530088 90.10836 -3.745682 0.126451 0.029166 -12.498684 -0.27689 0.015266 18.835014 -0.595359 -2.145352 11.337872 -1.491925 2.70089 -2.729039 -0.739695 0.017423 -34.770184 -1.640773 0.267571 4e-06 -0.0 0.0 -0.04301 -0.021891 -0.118006 -0.04747 -0.05807 -0.115158 -0.018367 0.004894 -0.114519 -103.39859 -65.692696 120.764465 22.424425 -14.197815 16.046946 52.888638 -0.342312 -0.245434 7.130288 3.389795 -8.988346 17.636629 -26.322737 52.411194 -19.466656 -14.3956 29.410389 -0.0 -8.774822 -3e-06 15.567818 -17.947018 6.15492 -0.609777 -1.795653 -3.889327 -4.807091 -11.046811 -2.937849 0.0 -20.976019 3e-06 -5.019974 -25.033558 -4.031879 6e-06 -1e-06 -0.0 -10.634537 -5.686975 -3.565587 10.573272 -17.922949 -3.113898 1e-06 -13.82121 1e-06 -0.501782 -31.181505 -4.027015 -10.919676 -59.387074 7.108488 -13.982716 -7.150201 -2.875041 13.772731 -8.401492 -3.21824 0.34773 -34.211555 0.771658 -0.96303 -17.733372 2.621017 -1e-06 1e-06 -0.0 -17.346422 -20.095221 -4.201778 21.757563 -1.638372 3.866429 1e-06 -6.338825 0.0 -1.697593 -22.591747 -6.194004 0.0 -3e-06 -3e-06 75.362366 -71.477654 121.743355 20.73214 -18.368738 4.034718 49.907242 -0.608434 0.771622 2.141674 -0.321114 1.236236 22.182119 -20.375895 49.933319 -16.701807 -16.743528 28.476522 -1e-06 -12.690601 -3e-06 16.45776 -17.964828 2.755929 -0.105918 -1.513854 -4.275879 -5.039042 -5.61287 -2.953556 3e-06 -11.020523 -0.0 -6.1113 -15.89533 -3.840471 0.0 1e-06 -1e-06 -10.283373 -5.680287 -4.341837 11.028293 -11.302402 -2.37263 -1.38427 -14.238578 -6.32012 -0.625443 -26.924187 -3.827597 -4.10781 -50.398506 -3.411276 -13.708525 -7.363472 -3.72094 18.141146 -14.052738 -3.242671 5e-06 -18.78727 -2e-06 -0.429713 -8.456041 2.555506 0.0 -0.0 -1e-06 -15.923539 -20.094482 -5.473579 30.41921 -7.190822 1.735926 4e-06 -8.162922 -0.0 -1.861907 -22.861469 -6.167938 0.0 -2e-06 -3e-06 -179.659622 -3.672744 -4.156108 6.739632 -0.054018 0.266413 -77.191597 -5.059745 -9.36114 -5.469146 1.388316 2.057527 -0.999998 -0.0 -0.0 1.518003 -9.567621 -5.326592 5.23601 -0.036732 0.034669 -76.754242 3.278437 -10.839828 -5.077471 0.75589 1.673191 -1.000001 -0.0 0.0 
0.0 0.0 0.0 0.0 -0.0 0.0 -1.149468 99.958908 4.775007 91.365273 -1.575131 89.967293 -3.745444 0.048528 0.037369 -12.504367 -0.277511 0.018917 18.904034 -0.549161 -2.135278 11.277652 -1.357431 2.733658 -2.75421 -0.743555 0.028253 -34.751396 -1.682614 0.326549 5e-06 0.0 -0.0 -0.042428 -0.022867 -0.123731 -0.053281 -0.065838 -0.117401 -0.019029 0.010381 -0.124179 -103.41478 -65.7006 120.847839 22.241478 -14.134695 16.022072 52.956516 -0.446105 -0.302481 7.298122 3.378004 -9.284222 17.636627 -26.322731 52.411201 -19.466656 -14.395597 29.410389 -2e-06 -8.774821 -2e-06 15.523272 -17.911943 6.169491 -0.609775 -1.795654 -3.889327 -4.807089 -11.046809 -2.937852 2e-06 -20.976015 0.0 -5.019971 -25.033556 -4.031884 6e-06 -0.0 -0.0 -10.634531 -5.686969 -3.565588 10.573271 -17.922947 -3.113899 1e-06 -13.821206 -0.0 -0.501777 -31.181505 -4.027017 -10.921633 -59.360493 7.121161 -13.98271 -7.150198 -2.875044 13.772727 -8.401491 -3.218242 0.347729 -34.211555 0.771658 -0.963031 -17.73337 2.621019 -1e-06 0.0 -1e-06 -17.346413 -20.095213 -4.201784 21.757555 -1.638374 3.866426 1e-06 -6.338825 0.0 -1.697591 -22.591742 -6.194003 1e-06 -3e-06 -3e-06 75.131676 -71.489517 122.072998 20.549732 -18.001654 4.388479 49.935589 -0.47122 0.818683 2.138547 -0.359262 1.07249 22.182114 -20.375895 49.933319 -16.701811 -16.74353 28.476532 -2e-06 -12.6906 -1e-06 16.43713 -17.93084 2.765326 -0.105918 -1.513852 -4.27588 -5.039043 -5.612872 -2.953556 1e-06 -11.020523 1e-06 -6.111297 -15.89533 -3.840471 0.0 0.0 -1e-06 -10.283367 -5.680288 -4.341838 11.02829 -11.302403 -2.372633 -1.384269 -14.238579 -6.320119 -0.62544 -26.924185 -3.827598 -4.118485 -50.362747 -3.367988 -13.708524 -7.363477 -3.720941 18.141146 -14.052739 -3.242673 6e-06 -18.78727 -1e-06 -0.429712 -8.456042 2.555504 0.0 -0.0 1e-06 -15.923536 -20.094481 -5.473583 30.41921 -7.190824 1.735928 4e-06 -8.162924 -0.0 -1.861903 -22.861467 -6.167941 0.0 -2e-06 -1e-06 -179.919266 -3.410416 -4.242638 7.297372 -0.062513 0.270878 -77.565201 -5.056778 -9.270814 -5.498689 1.402537 2.065099 -0.999998 -1e-06 -0.0 1.434028 -9.888733 -5.387084 5.208842 -0.03802 0.027109 -76.766571 3.626177 -11.051325 -5.117105 0.741009 1.667566 -1.000002 0.0 0.0 
